<?xml version="1.0" encoding="UTF-8"?>
<svg xmlns="http://www.w3.org/2000/svg" width="25.0" height="25.0" viewBox="122.0 -8.881784197001252E-16 25.0 25.0" preserveAspectRatio="none">
  <g>
    <defs>
      <path id="s-Path_14-d1224" d="M126.03978716163633 25.0 L142.94793255412617 25.0 C145.6124278075305 25.0 147.0 23.50183870619874 147.0 20.63929166450771 L147.0 4.360617622986925 C147.0 1.498130814399456 145.6124278075305 0.0 142.94793255412617 0.0 L126.03978716163633 0.0 C123.38752955721988 0.0 122.0 1.4847532598083077 122.0 4.360617622986925 L122.0 20.63929166450771 C122.0 23.50183870619874 123.38752955721988 25.0 126.03978716163633 25.0 Z M126.02750687739885 22.338039352971645 C125.00834254587812 22.338039352971645 124.44352075176178 21.762913360558695 124.44352075176178 20.585871432948437 L124.44352075176178 8.279762156165134 C124.44352075176178 7.102723131355044 125.00834254587812 6.527534728738401 126.02750687739885 6.527534728738401 L142.9602274942307 6.527534728738401 C143.97939115957567 6.527534728738401 144.54422827573484 7.102723131355044 144.54422827573484 8.279762156165134 L144.54422827573484 20.585871432948437 C144.54422827573484 21.762913360558695 143.97939115957567 22.338039352971645 142.9602274942307 22.338039352971645 L126.02750687739885 22.338039352971645 Z M132.13012664561072 11.142310649256252 L132.8546474274037 11.142310649256252 C133.29668036883646 11.142310649256252 133.4439318621561 10.995143034752758 133.4439318621561 10.527005548267109 L133.4439318621561 9.737745792790285 C133.4439318621561 9.256216237712628 133.29668036883646 9.109199568818063 132.8546474274037 9.109199568818063 L132.13012664561072 9.109199568818063 C131.68809237182637 9.109199568818063 131.540700981594 9.256216237712628 131.540700981594 9.737745792790285 L131.540700981594 10.527005548267109 C131.540700981594 10.995143034752758 131.68809237182637 11.142310649256252 132.13012664561072 11.142310649256252 Z M136.1453106035225 11.142310649256252 L136.86983138531545 11.142310649256252 C137.29957205134681 11.142310649256252 137.44696210922763 10.995143034752758 137.44696210922763 10.527005548267109 L137.44696210922763 9.737745792790285 C137.44696210922763 9.256216237712628 137.29957205134681 9.109199568818063 136.86983138531545 9.109199568818063 L136.1453106035225 9.109199568818063 C135.7032776620897 9.109199568818063 135.55602616877007 9.256216237712628 135.55602616877007 9.737745792790285 L135.55602616877007 10.527005548267109 C135.55602616877007 10.995143034752758 135.7032776620897 11.142310649256252 136.1453106035225 11.142310649256252 Z M140.14833951824247 11.142310649256252 L140.87272306782577 11.142310649256252 C141.314754676907 11.142310649256252 141.46214739949093 10.995143034752758 141.46214739949093 10.527005548267109 L141.46214739949093 9.737745792790285 C141.46214739949093 9.256216237712628 141.314754676907 9.109199568818063 140.87272306782577 9.109199568818063 L140.14833951824247 9.109199568818063 C139.71860018456266 9.109199568818063 139.57121012668185 9.256216237712628 139.57121012668185 9.737745792790285 L139.57121012668185 10.527005548267109 C139.57121012668185 10.995143034752758 139.71860018456266 11.142310649256252 140.14833951824247 11.142310649256252 Z M128.12720831606939 15.44944925898043 L128.83937953134426 15.44944925898043 C129.28135651401195 15.44944925898043 129.42874790424432 15.30228019307685 129.42874790424432 14.820750637999193 L129.42874790424432 14.031492333922454 C129.42874790424432 13.563354847436806 129.28135651401195 13.416185781533226 128.83937953134426 13.416185781533226 L128.12720831606939 13.416185781533226 C127.68516071876955 13.416185781533226 127.53781063143524 13.563354847436806 127.53781063143524 14.031492333922454 L127.53781063143524 14.820750637999193 C127.53781063143524 15.30228019307685 127.68516071876955 15.44944925898043 128.12720831606939 15.44944925898043 Z M132.13012664561072 15.44944925898043 L132.8546474274037 15.44944925898043 C133.29668036883646 15.44944925898043 133.4439318621561 15.30228019307685 133.4439318621561 14.820750637999193 L133.4439318621561 14.031492333922454 C133.4439318621561 13.563354847436806 133.29668036883646 13.416185781533226 132.8546474274037 13.416185781533226 L132.13012664561072 13.416185781533226 C131.68809237182637 13.416185781533226 131.540700981594 13.563354847436806 131.540700981594 14.031492333922454 L131.540700981594 14.820750637999193 C131.540700981594 15.30228019307685 131.68809237182637 15.44944925898043 132.13012664561072 15.44944925898043 Z M136.1453106035225 15.44944925898043 L136.86983138531545 15.44944925898043 C137.29957205134681 15.44944925898043 137.44696210922763 15.30228019307685 137.44696210922763 14.820750637999193 L137.44696210922763 14.031492333922454 C137.44696210922763 13.563354847436806 137.29957205134681 13.416185781533226 136.86983138531545 13.416185781533226 L136.1453106035225 13.416185781533226 C135.7032776620897 13.416185781533226 135.55602616877007 13.563354847436806 135.55602616877007 14.031492333922454 L135.55602616877007 14.820750637999193 C135.55602616877007 15.30228019307685 135.7032776620897 15.44944925898043 136.1453106035225 15.44944925898043 Z M140.14833951824247 15.44944925898043 L140.87272306782577 15.44944925898043 C141.314754676907 15.44944925898043 141.46214739949093 15.30228019307685 141.46214739949093 14.820750637999193 L141.46214739949093 14.031492333922454 C141.46214739949093 13.563354847436806 141.314754676907 13.416185781533226 140.87272306782577 13.416185781533226 L140.14833951824247 13.416185781533226 C139.71860018456266 13.416185781533226 139.57121012668185 13.563354847436806 139.57121012668185 14.031492333922454 L139.57121012668185 14.820750637999193 C139.57121012668185 15.30228019307685 139.71860018456266 15.44944925898043 140.14833951824247 15.44944925898043 Z M128.12720831606939 19.743194348712514 L128.83937953134426 19.743194348712514 C129.28135651401195 19.743194348712514 129.42874790424432 19.596025282808935 129.42874790424432 19.127887796323282 L129.42874790424432 18.338630943646635 C129.42874790424432 17.85709993716889 129.28135651401195 17.70993087126531 128.83937953134426 17.70993087126531 L128.12720831606939 17.70993087126531 C127.68516071876955 17.70993087126531 127.53781063143524 17.85709993716889 127.53781063143524 18.338630943646635 L127.53781063143524 19.127887796323282 C127.53781063143524 19.596025282808935 127.68516071876955 19.743194348712514 128.12720831606939 19.743194348712514 Z M132.13012664561072 19.743194348712514 L132.8546474274037 19.743194348712514 C133.29668036883646 19.743194348712514 133.4439318621561 19.596025282808935 133.4439318621561 19.127887796323282 L133.4439318621561 18.338630943646635 C133.4439318621561 17.85709993716889 133.29668036883646 17.70993087126531 132.8546474274037 17.70993087126531 L132.13012664561072 17.70993087126531 C131.68809237182637 17.70993087126531 131.540700981594 17.85709993716889 131.540700981594 18.338630943646635 L131.540700981594 19.127887796323282 C131.540700981594 19.596025282808935 131.68809237182637 19.743194348712514 132.13012664561072 19.743194348712514 Z M136.1453106035225 19.743194348712514 L136.86983138531545 19.743194348712514 C137.29957205134681 19.743194348712514 137.44696210922763 19.596025282808935 137.44696210922763 19.127887796323282 L137.44696210922763 18.338630943646635 C137.44696210922763 17.85709993716889 137.29957205134681 17.70993087126531 136.86983138531545 17.70993087126531 L136.1453106035225 17.70993087126531 C135.7032776620897 17.70993087126531 135.55602616877007 17.85709993716889 135.55602616877007 18.338630943646635 L135.55602616877007 19.127887796323282 C135.55602616877007 19.596025282808935 135.7032776620897 19.743194348712514 136.1453106035225 19.743194348712514 Z "></path>
    </defs>
    <g style="mix-blend-mode:normal">
      <use xmlns:xlink="http://www.w3.org/1999/xlink" xlink:href="#s-Path_14-d1224" fill="#8E8E93" fill-opacity="1.0"></use>
    </g>
  </g>
</svg>
