<?xml version="1.0" encoding="UTF-8"?>
<svg xmlns="http://www.w3.org/2000/svg" width="25.0" height="25.0" viewBox="32.0 -1.2658714254598635E-7 25.0 25.0" preserveAspectRatio="none">
  <g>
    <defs>
      <path id="s-Path_31-d1224" d="M32.0 11.803621675885374 C32.0 12.410976263163079 32.408828470251834 12.936482488020609 33.06295845875768 12.936482488020609 C33.379801562914466 12.936482488020609 33.66597899678287 12.737973091939697 33.921502405133 12.504384921136257 L35.086668120081846 11.38321745629501 L35.086668120081846 22.243983977335528 C35.086668120081846 23.9722399259725 35.996321516937805 25.0 37.560105456812465 25.0 L51.38878453819403 25.0 C52.942416456593165 25.0 53.86226900851791 23.9722399259725 53.86226900851791 22.243983977335528 L53.86226900851791 11.324886305884927 L55.08877604527504 12.504384921136257 C55.33403264798723 12.737973091939697 55.62022117211287 12.936482488020609 55.93710974632434 12.936482488020609 C56.54007372403762 12.936482488020609 57.0 12.504384921136257 57.0 11.827007103313914 C57.0 11.429988311152098 56.86719638762818 11.11468356251003 56.60135848553399 10.85771123143748 L53.86226900851791 8.21848802701529 L53.86226900851791 3.243601065982026 C53.86226900851791 2.7180815359503994 53.56584639501318 2.391098645927598 53.10592011905081 2.391098645927598 L51.69544124107786 2.391098645927598 C51.24574905449457 2.391098645927598 50.939092351610746 2.7180815359503994 50.939092351610746 3.243601065982026 L50.939092351610746 5.415741698595749 L45.961540917603884 0.6393768052377728 C45.07238952479068 -0.21312561481665604 43.948100279969104 -0.21312561481665604 43.0588324394549 0.6393768052377728 L32.408828470251834 10.85771123143748 C32.13286128170946 11.11468356251003 32.0 11.465065818715193 32.0 11.803621675885374 Z M47.44353864645229 15.02681404015673 C47.44353864645229 14.477922387870656 47.13699728224374 14.12767318340649 46.656605045574636 14.12767318340649 L42.363884759185154 14.12767318340649 C41.88349141349032 14.12767318340649 41.56660173025313 14.477922387870656 41.56660173025313 15.02681404015673 L41.56660173025313 22.676080277060443 L38.10180574451813 22.676080277060443 C37.46810844594732 22.676080277060443 37.120611316272246 22.26723635302308 37.120611316272246 21.53152865195009 L37.120611316272246 9.433065416989152 L44.060552161283745 2.7764785786512585 C44.34674179443512 2.496200017615048 44.67374801032467 2.496200017615048 44.95993764347604 2.7764785786512585 L51.818126102745865 9.362909134703525 L51.818126102745865 21.53152865195009 C51.818126102745865 22.26723635302308 51.47053747844858 22.676080277060443 50.83687345064947 22.676080277060443 L47.44353864645229 22.676080277060443 L47.44353864645229 15.02681404015673 Z "></path>
    </defs>
    <g style="mix-blend-mode:normal">
      <use xmlns:xlink="http://www.w3.org/1999/xlink" xlink:href="#s-Path_31-d1224" fill="#1EAAF1" fill-opacity="1.0"></use>
    </g>
  </g>
</svg>
