<?xml version="1.0" encoding="UTF-8"?>
<svg xmlns="http://www.w3.org/2000/svg" width="25.0" height="25.0" viewBox="213.0 -4.440892098500626E-16 25.0 25.0" preserveAspectRatio="none">
  <g>
    <defs>
      <path id="s-Path_44-d1224" d="M227.13722447203128 24.502881412310078 L236.53791037294613 19.52051158987002 C237.5529164975016 18.97927575333912 238.0 18.515215134580203 238.0 17.81924767336473 C238.0 17.112220932239275 237.5529164975016 16.65934665643721 236.53791037294613 16.10692447694946 L234.89462106618947 15.234232695568338 L236.53791037294613 14.361542112895204 C237.5529164975016 13.82017921331743 238.0 13.356118594558513 238.0 12.66015233205103 C238.0 11.964187268251537 237.5529164975016 11.500251315123512 236.53791037294613 10.958889614253732 L234.59257964472204 9.920408126986041 L236.53791037294613 8.893114181383195 C237.5529164975016 8.351751281805424 238.0 7.8878165273853895 238.0 7.191787932062457 C238.0 6.4847611909370055 237.5529164975016 6.031824582319491 236.53791037294613 5.4794635369392 L227.13722447203128 0.4971308744468099 C226.5089452231391 0.16571448696023294 226.01347021982923 0.0 225.50603533490775 0.0 C224.98650159145615 0.0 224.49102658814627 0.16571448696023294 223.86274733925413 0.4971308744468099 L214.46206340499376 5.4794635369392 C213.4470821913954 6.031824582319491 213.0 6.4847611909370055 213.0 7.191787932062457 C213.0 7.8878165273853895 213.4470821913954 8.351751281805424 214.46206340499376 8.893114181383195 L216.40744788844108 9.931469804312 L214.46206340499376 10.958889614253732 C213.4470821913954 11.500251315123512 213.0 11.964187268251537 213.0 12.66015233205103 C213.0 13.356118594558513 213.4470821913954 13.82017921331743 214.46206340499376 14.361542112895204 L216.11744894807453 15.234232695568338 L214.46206340499376 16.10692447694946 C213.4470821913954 16.65934665643721 213.0 17.112220932239275 213.0 17.81924767336473 C213.0 18.515215134580203 213.4470821913954 18.97927575333912 214.46206340499376 19.52051158987002 L223.86274733925413 24.502881412310078 C224.49102658814627 24.834336158452317 224.98650159145615 24.999999999999996 225.50603533490775 24.999999999999996 C226.01347021982923 24.999999999999996 226.5089452231391 24.834336158452317 227.13722447203128 24.502881412310078 Z M225.50603533490775 12.074672183632282 C225.3369358248381 12.074672183632282 225.19189505491016 12.019492058757356 225.01056033159787 11.931129299320537 L216.11744894807453 7.291211170117245 C216.05702676608917 7.269114187041096 216.0328716598766 7.235981898214757 216.0328716598766 7.191787932062457 C216.0328716598766 7.136545474372085 216.05702676608917 7.114461677083819 216.11744894807453 7.081316202469594 L225.01056033159787 2.4524963111859353 C225.19189505491016 2.353073073131149 225.3369358248381 2.3088791069788495 225.50603533490775 2.3088791069788495 C225.6631736522628 2.3088791069788495 225.80807675637521 2.353073073131149 225.9894114796875 2.4524963111859353 L234.89462106618947 7.081316202469594 C234.94301387810398 7.114461677083819 234.9791714767758 7.136545474372085 234.9791714767758 7.191787932062457 C234.9791714767758 7.235981898214757 234.94301387810398 7.269114187041096 234.89462106618947 7.291211170117245 L225.9894114796875 11.931129299320537 C225.80807675637521 12.019492058757356 225.6631736522628 12.074672183632282 225.50603533490775 12.074672183632282 Z M225.50603533490775 14.372476727174288 C226.01347021982923 14.372476727174288 226.5089452231391 14.217874562952563 227.13722447203128 13.875359338192357 L232.23632563487737 11.179858246307232 L234.89462106618947 12.549667416670285 C234.94301387810398 12.582851249940166 234.9791714767758 12.604973405884092 234.9791714767758 12.66015233205103 C234.9791714767758 12.71545832126484 234.94301387810398 12.737580477208766 234.89462106618947 12.770637247431775 L225.9894114796875 17.399431366493662 C225.80807675637521 17.49885460454845 225.6631736522628 17.5430989164363 225.50603533490775 17.5430989164363 C225.3369358248381 17.5430989164363 225.19189505491016 17.49885460454845 225.01056033159787 17.399431366493662 L216.11744894807453 12.770637247431775 C216.05702676608917 12.737580477208766 216.0328716598766 12.71545832126484 216.0328716598766 12.66015233205103 C216.0328716598766 12.604973405884092 216.05702676608917 12.582851249940166 216.11744894807453 12.549667416670285 L218.76364748751104 11.168797767689265 L223.86274733925413 13.875359338192357 C224.49102658814627 14.217874562952563 224.98650159145615 14.372476727174288 225.50603533490775 14.372476727174288 Z "></path>
    </defs>
    <g style="mix-blend-mode:normal">
      <use xmlns:xlink="http://www.w3.org/1999/xlink" xlink:href="#s-Path_44-d1224" fill="#8E8E93" fill-opacity="1.0"></use>
    </g>
  </g>
</svg>
